<?xml version="1.0" standalone="no"?>
<!DOCTYPE svg PUBLIC "-//W3C//DTD SVG 1.0//EN" "http://www.w3.org/TR/2001/REC-SVG-20010904/DTD/svg10.dtd">
<svg xmlns="http://www.w3.org/2000/svg" xmlns:xlink="http://www.w3.org/1999/xlink" id="body_1" width="800" height="800">

<g transform="matrix(2.1857924 0 0 2.1857924 120.21859 -0)">
    <path d="M182.022 9.147C 185.004 12.849 186.524 17.844 189.565 27.834L189.565 27.834L256 246.074C 231.046 233.12405 204.26256 224.05606 176.574 219.183L176.574 219.183L133.318 73.008C 132.60925 70.61346 130.40785 68.97192 127.91064 68.97585C 125.413414 68.97978 123.217186 70.628235 122.51599 73.025L122.51599 73.025L79.784 219.11C 51.970116 223.95999 25.063583 233.0419 0 246.04L0 246.04L66.76 27.783C 69.811005 17.811 71.337006 12.824001 74.319 9.129002C 76.95155 5.8671875 80.37569 3.3340263 84.265 1.7710018C 88.67 0 93.885 0 104.314 0L104.314 0L151.99701 0C 162.44 0 167.66101 0 172.07101 1.774C 175.96336 3.3408165 179.38907 5.87928 182.02101 9.147L182.02101 9.147L182.022 9.147z" stroke="none" fill="#FFFFFF" fill-rule="nonzero" />
    <path d="M189.972 256.46C 179.02 265.824 157.16 272.211 131.98 272.211C 101.076 272.211 75.173 262.59 68.299995 249.651C 65.841995 257.066 65.29099 265.55402 65.29099 270.975C 65.29099 270.975 63.671993 297.598 82.188995 316.115C 82.188995 306.5 89.98399 298.705 99.599 298.705C 116.078995 298.705 116.059 313.08298 116.045 324.748L116.045 324.748L116.044 325.78897C 116.044 343.49396 126.864 358.67197 142.254 365.06897C 139.88513 360.1935 138.65808 354.84244 138.666 349.42197C 138.666 332.53598 148.579 326.24896 160.101 318.94196C 169.268 313.12796 179.454 306.66797 186.47299 293.70996C 190.25337 286.7292 192.2273 278.91364 192.215 270.97498C 192.215 265.91498 191.429 261.037 189.972 256.45898L189.972 256.45898L189.972 256.46z" stroke="none" fill="#FF5D01" fill-rule="nonzero" />
</g>
</svg>